<?xml version="1.0" standalone="no"?>
<!DOCTYPE svg PUBLIC "-//W3C//DTD SVG 20010904//EN"
 "http://www.w3.org/TR/2001/REC-SVG-20010904/DTD/svg10.dtd">
<svg version="1.0" xmlns="http://www.w3.org/2000/svg"
 width="1280.000000pt" height="431.000000pt" viewBox="0 0 1280.000000 431.000000"
 preserveAspectRatio="xMidYMid meet">

<g transform="translate(0.000000,431.000000) scale(0.100000,-0.100000)"
fill="#000000" stroke="none">
<path d="M2280 4303 c-19 -1 -93 -8 -165 -14 -813 -67 -1432 -392 -1792 -941
-447 -680 -412 -1645 85 -2373 130 -190 281 -351 462 -492 284 -221 656 -369
1035 -413 104 -12 1565 -14 2540 -3 l640 7 61 85 c33 47 161 232 284 411 123
179 311 450 416 602 106 152 189 279 186 282 -3 3 -830 6 -1839 6 -1805 0
-1835 0 -1926 20 -472 104 -746 596 -553 995 83 172 243 292 476 356 l85 24
1640 3 c910 1 1643 6 1648 11 5 5 6 322 1 725 l-7 716 -1621 -2 c-892 0 -1637
-3 -1656 -5z"/>
<path d="M6090 3585 l0 -725 415 0 415 0 2 483 3 482 288 3 287 2 0 240 0 240
-705 0 -705 0 0 -725z"/>
<path d="M7740 3581 l0 -728 78 2 c42 1 202 2 355 3 l277 2 0 485 0 485 115 0
115 0 0 -485 0 -485 360 0 360 0 1 470 c1 259 2 476 3 483 1 9 35 13 129 15
l127 3 0 -486 0 -485 360 0 360 0 0 725 0 725 -1320 0 -1320 0 0 -729z"/>
<path d="M10560 4300 c0 -10 476 -1226 487 -1243 2 -4 28 28 57 70 539 798
784 1160 790 1171 6 9 -130 12 -663 12 -451 0 -671 -3 -671 -10z"/>
<path d="M11551 3584 c-277 -399 -502 -727 -500 -728 2 -2 168 -1 369 2 l365
5 500 715 c275 393 502 718 503 723 2 5 -158 9 -366 9 l-369 0 -502 -726z"/>
<path d="M2242 2659 c-83 -16 -178 -68 -236 -129 -92 -96 -136 -214 -136 -362
0 -253 151 -457 369 -498 35 -6 714 -10 1927 -10 l1874 0 0 35 0 35 -272 -1
c-150 0 -984 -6 -1853 -13 -869 -7 -1598 -9 -1620 -5 -93 18 -159 53 -225 119
-92 93 -140 212 -140 352 0 188 99 338 266 401 l59 22 1502 3 c827 1 1503 -1
1503 -6 0 -7 -96 -141 -162 -226 -34 -43 -33 -46 11 -46 40 0 41 1 129 118 48
64 105 141 126 170 l38 52 -1559 -1 c-857 -1 -1578 -5 -1601 -10z"/>
<path d="M6868 1757 c-350 -502 -759 -1086 -907 -1299 -149 -213 -271 -390
-271 -393 0 -3 271 -4 602 -3 l602 3 175 250 c194 279 1078 1548 1101 1581 32
47 408 584 467 668 35 49 63 93 63 97 0 5 -265 9 -597 9 l-598 -1 -637 -912z
m1736 852 c-9 -16 -922 -1322 -932 -1334 -25 -32 -592 -846 -592 -851 0 -3 -6
-11 -13 -19 -8 -7 -58 -77 -112 -154 l-98 -141 -534 0 c-293 0 -533 3 -533 6
0 4 170 250 379 548 1012 1446 1342 1920 1352 1937 9 18 32 19 550 19 399 0
538 -3 533 -11z"/>
<path d="M8633 2137 c-205 -292 -613 -876 -907 -1297 -295 -421 -536 -768
-536 -772 0 -5 264 -8 588 -8 l587 0 95 137 c160 231 185 266 947 1358 407
583 748 1072 757 1088 l18 27 -588 0 -589 0 -372 -533z"/>
<path d="M10324 2469 c-76 -110 -155 -222 -174 -249 -34 -47 -225 -322 -484
-695 -68 -99 -147 -211 -174 -250 -27 -38 -154 -221 -282 -405 -128 -184 -304
-436 -390 -560 -86 -124 -160 -231 -164 -237 -6 -10 112 -13 577 -13 l584 0
234 335 c129 185 266 381 304 435 39 55 101 144 138 197 37 54 175 251 305
438 131 187 352 504 492 705 139 201 271 389 292 417 21 29 41 60 44 68 5 13
-62 15 -578 15 l-585 0 -139 -201z"/>
</g>
</svg>
